<?xml version="1.0" encoding="utf-8"?>
<!-- Generator: Adobe Illustrator 22.0.1, SVG Export Plug-In . SVG Version: 6.00 Build 0)  -->
<svg version="1.1" id="Layer_1" xmlns="http://www.w3.org/2000/svg" xmlns:xlink="http://www.w3.org/1999/xlink" x="0px" y="0px"
	 viewBox="0 0 1088 768" style="enable-background:new 0 0 1088 768;" xml:space="preserve">
<style type="text/css">
	.st0{fill:#E55041;}
	.st1{clip-path:url(#SVGID_2_);}
	.st2{fill:#FFFFFF;}
	.st3{fill:none;}
</style>
<g>
	<polygon points="258.5,256 40,343 145.3,369.1 171.5,474.5 	"/>
	<circle class="st0" cx="416" cy="96" r="64"/>
	<path d="M240,236c-3.1,0-6.1-1.2-8.5-3.5c-4.7-4.7-4.7-12.3,0-17l80-80c4.7-4.7,12.3-4.7,17,0c4.7,4.7,4.7,12.3,0,17l-80,80
		C246.1,234.8,243.1,236,240,236z"/>
	<path d="M320,236c-3.1,0-6.1-1.2-8.5-3.5c-4.7-4.7-4.7-12.3,0-17l48-48c4.7-4.7,12.3-4.7,17,0c4.7,4.7,4.7,12.3,0,17l-48,48
		C326.1,234.8,323.1,236,320,236z"/>
</g>
<g>
	<defs>
		<rect id="SVGID_1_" x="576" width="512" height="512"/>
	</defs>
	<clipPath id="SVGID_2_">
		<use xlink:href="#SVGID_1_"  style="overflow:visible;"/>
	</clipPath>
	<g class="st1">
		<path d="M679.7,161.3c-2.2,0-4.4-0.4-6.5-1.2c-47.7-18.5-98.1-28.6-149.7-29.9c-9.9-0.3-17.8-8.5-17.5-18.4
			c0.2-9.8,8.3-17.5,18-17.5c0.2,0,0.3,0,0.5,0c55.8,1.4,110.2,12.3,161.9,32.3c9.3,3.6,13.9,14,10.3,23.3
			C693.7,156.9,686.9,161.3,679.7,161.3z"/>
		<path d="M974.5,631.2c-0.5,0-1,0-1.5-0.1c-9.9-0.8-17.3-9.5-16.5-19.4c0.9-11.8,1.4-23.9,1.4-35.8c0-72-17.6-143.6-50.8-206.9
			c-4.6-8.8-1.2-19.7,7.6-24.3c8.8-4.6,19.7-1.2,24.3,7.6C975,420.8,994,498.2,994,576c0,12.9-0.5,25.9-1.5,38.7
			C991.7,624.1,983.8,631.2,974.5,631.2z"/>
		<circle cx="672" cy="144" r="32"/>
		<circle cx="960" cy="432" r="64"/>
		<circle cx="848" cy="32" r="48"/>
		<circle cx="1040" cy="208" r="32"/>
		<path class="st0" d="M640,460c-3.1,0-6.1-1.2-8.5-3.5c-4.7-4.7-4.7-12.3,0-17l368-368c4.7-4.7,12.3-4.7,17,0
			c4.7,4.7,4.7,12.3,0,17l-368,368C646.1,458.8,643.1,460,640,460z"/>
		<path class="st0" d="M1024,76h-80c-6.6,0-12-5.4-12-12s5.4-12,12-12h80c6.6,0,12,5.4,12,12S1030.6,76,1024,76z"/>
		<path class="st0" d="M1024,156c-6.6,0-12-5.4-12-12V64c0-6.6,5.4-12,12-12s12,5.4,12,12v80C1036,150.6,1030.6,156,1024,156z"/>
		<g>
			<circle class="st0" cx="832" cy="256" r="64"/>
			<path class="st2" d="M832,192c35.3,0,64,28.7,64,64s-28.7,64-64,64s-64-28.7-64-64S796.7,192,832,192 M832,168
				c-48.5,0-88,39.5-88,88s39.5,88,88,88s88-39.5,88-88S880.5,168,832,168L832,168z"/>
		</g>
	</g>
</g>
<g>
	<path d="M528.8,699.7H179.3c-6.7-6.7-10.5-10.5-17.3-17.3V589c6.7-6.7,10.5-10.5,17.3-17.3h349.5c6.7,6.7,10.5,10.5,17.3,17.3v93.5
		C539.3,689.2,535.5,693,528.8,699.7z"/>
	<g>
		<rect x="210" y="603.7" class="st3" width="288" height="64"/>
		<path class="st2" d="M275.9,655.1c-1.4,2.3-3.4,4.1-6,5.4s-5.9,2-9.7,2c-5.7,0-10.4-1.4-14.1-4.2c-3.7-2.8-5.7-6.7-6-11.7h13.1
			c0.2,1.9,0.9,3.4,2.1,4.5c1.2,1.1,2.7,1.7,4.5,1.7c1.6,0,2.8-0.4,3.7-1.3c0.9-0.9,1.4-2,1.4-3.5c0-1.3-0.4-2.4-1.3-3.2
			c-0.8-0.9-1.9-1.6-3.1-2.1c-1.2-0.6-3-1.2-5.2-2c-3.2-1.1-5.8-2.2-7.9-3.2c-2-1-3.8-2.6-5.3-4.6c-1.5-2-2.2-4.7-2.2-8
			c0-3,0.8-5.6,2.3-7.8c1.5-2.2,3.7-3.9,6.4-5.1c2.7-1.2,5.8-1.8,9.3-1.8c5.7,0,10.2,1.3,13.5,4c3.3,2.7,5.2,6.4,5.7,11.1h-13.3
			c-0.2-1.7-0.9-3-1.8-4c-1-1-2.3-1.5-4-1.5c-1.4,0-2.6,0.4-3.5,1.2c-0.9,0.8-1.3,1.9-1.3,3.4c0,1.2,0.4,2.2,1.2,3.1
			c0.8,0.8,1.8,1.5,3,2.1c1.2,0.5,2.9,1.2,5.2,2c3.3,1.1,5.9,2.2,8,3.3c2.1,1.1,3.8,2.7,5.3,4.7c1.5,2.1,2.2,4.8,2.2,8.1
			C278,650.4,277.3,652.8,275.9,655.1z"/>
		<path class="st2" d="M297.1,644.2V662h-12.3v-50.9h19.9c6,0,10.7,1.5,13.8,4.5c3.2,3,4.8,7,4.8,12.1c0,3.2-0.7,6-2.1,8.5
			c-1.4,2.5-3.5,4.4-6.3,5.8c-2.8,1.4-6.2,2.1-10.2,2.1H297.1z M310.8,627.7c0-4.5-2.5-6.7-7.4-6.7h-6.3v13.2h6.3
			C308.3,634.3,310.8,632.1,310.8,627.7z"/>
		<path class="st2" d="M360.9,652.7h-19.1l-3.2,9.3h-13l18.6-50.5h14.2l18.6,50.5h-13.1L360.9,652.7z M357.7,643.4l-6.3-18.7
			l-6.4,18.7H357.7z"/>
		<path class="st2" d="M421.3,615.7c4.2,3.4,7,8,8.2,13.8h-13c-1-2.4-2.4-4.2-4.4-5.5c-2-1.3-4.4-2-7.1-2c-3.6,0-6.5,1.3-8.7,4
			c-2.2,2.6-3.3,6.2-3.3,10.6c0,4.4,1.1,7.9,3.3,10.5c2.2,2.6,5.1,3.9,8.7,3.9c2.7,0,5.1-0.7,7.1-2c2-1.3,3.5-3.2,4.4-5.5h13
			c-1.2,5.8-4,10.4-8.2,13.8c-4.2,3.4-9.6,5.1-16.1,5.1c-4.9,0-9.3-1.1-13-3.3c-3.7-2.2-6.6-5.2-8.7-9.2c-2-3.9-3.1-8.4-3.1-13.5
			s1-9.5,3.1-13.5c2-3.9,4.9-7,8.7-9.2c3.7-2.2,8.1-3.3,13-3.3C411.7,610.6,417,612.3,421.3,615.7z"/>
		<path class="st2" d="M448.8,620.9v10.7H466v9.3h-17.2v11.3h19.4v9.9h-31.7v-50.9h31.7v9.8H448.8z"/>
	</g>
	<g>
		<rect x="578" y="603.7" class="st3" width="192" height="64"/>
		<path d="M665.3,613.8c3.8,2.2,6.8,5.3,9,9.3c2.2,4,3.3,8.4,3.3,13.4c0,5-1.1,9.5-3.3,13.4c-2.2,4-5.2,7.1-9,9.3
			c-3.8,2.2-8.1,3.3-12.8,3.3c-4.8,0-9-1.1-12.9-3.3c-3.8-2.2-6.8-5.3-9-9.3c-2.2-4-3.3-8.4-3.3-13.4c0-5,1.1-9.5,3.3-13.4
			c2.2-4,5.2-7,9-9.3c3.8-2.2,8.1-3.3,12.9-3.3C657.2,610.5,661.5,611.6,665.3,613.8z M643.8,620.4c-2.5,1.5-4.5,3.6-5.9,6.4
			c-1.4,2.8-2.1,6-2.1,9.7c0,3.7,0.7,6.9,2.1,9.7c1.4,2.8,3.4,4.9,5.9,6.4c2.5,1.5,5.4,2.2,8.7,2.2c3.2,0,6.1-0.7,8.6-2.2
			c2.5-1.5,4.5-3.6,5.9-6.4c1.4-2.8,2.1-6,2.1-9.7c0-3.7-0.7-6.9-2.1-9.7c-1.4-2.8-3.4-4.9-5.9-6.4c-2.5-1.5-5.4-2.2-8.6-2.2
			C649.3,618.2,646.4,618.9,643.8,620.4z"/>
		<path d="M712.6,662l-12.7-20.3h-5.8V662h-8.2v-50.8h17.9c5.8,0,10.2,1.4,13.2,4.2c3,2.8,4.5,6.6,4.5,11.2c0,4-1.1,7.2-3.3,9.8
			c-2.2,2.5-5.5,4.2-9.7,4.9l13.3,20.7H712.6z M694.1,635.9h9.1c6.6,0,9.9-2.9,9.9-8.8c0-2.8-0.8-5-2.4-6.5
			c-1.6-1.6-4.1-2.3-7.5-2.3h-9.1V635.9z"/>
	</g>
	<g>
		<polygon points="896.2,699.7 910.8,743.5 885.2,752 871.3,710.4 850,731.7 850,603.7 874.6,634.8 926,699.7 		"/>
		<path d="M834,611.7h-32c-4.4,0-8-3.6-8-8s3.6-8,8-8h32c4.4,0,8,3.6,8,8S838.4,611.7,834,611.7z"/>
		<path d="M850,595.7c-4.4,0-8-3.6-8-8v-32c0-4.4,3.6-8,8-8s8,3.6,8,8v32C858,592.1,854.4,595.7,850,595.7z"/>
		<path d="M818,579.7c-2,0-4.1-0.8-5.7-2.3l-16-16c-3.1-3.1-3.1-8.2,0-11.3c3.1-3.1,8.2-3.1,11.3,0l16,16c3.1,3.1,3.1,8.2,0,11.3
			C822.1,578.9,820,579.7,818,579.7z"/>
		<path d="M898,611.7h-32c-4.4,0-8-3.6-8-8s3.6-8,8-8h32c4.4,0,8,3.6,8,8S902.4,611.7,898,611.7z"/>
		<path d="M882,579.7c-2,0-4.1-0.8-5.7-2.3c-3.1-3.1-3.1-8.2,0-11.3l16-16c3.1-3.1,8.2-3.1,11.3,0c3.1,3.1,3.1,8.2,0,11.3l-16,16
			C886.1,578.9,884,579.7,882,579.7z"/>
		<path d="M802,659.7c-2,0-4.1-0.8-5.7-2.3c-3.1-3.1-3.1-8.2,0-11.3l16-16c3.1-3.1,8.2-3.1,11.3,0c3.1,3.1,3.1,8.2,0,11.3l-16,16
			C806.1,658.9,804,659.7,802,659.7z"/>
	</g>
</g>
<g>
</g>
<g>
</g>
<g>
</g>
<g>
</g>
<g>
</g>
<g>
</g>
<g>
</g>
<g>
</g>
<g>
</g>
<g>
</g>
<g>
</g>
<g>
</g>
<g>
</g>
<g>
</g>
<g>
</g>
</svg>
