<?xml version="1.0" encoding="utf-8"?>
<!-- Generator: Adobe Illustrator 22.0.1, SVG Export Plug-In . SVG Version: 6.00 Build 0)  -->
<svg version="1.1" id="Layer_1" xmlns="http://www.w3.org/2000/svg" xmlns:xlink="http://www.w3.org/1999/xlink" x="0px" y="0px"
	 viewBox="0 0 512 256" style="enable-background:new 0 0 512 256;" xml:space="preserve">
<style type="text/css">
	.st0{clip-path:url(#SVGID_2_);fill:url(#SVGID_3_);}
</style>
<g>
	<defs>
		<path id="SVGID_1_" d="M235.6,68c11.2,8.3,18.6,19.5,22.2,33.8h-24c-3.1-7.6-8.1-13.7-15.1-18.2c-7-4.5-15.3-6.8-24.9-6.8
			c-8.8,0-16.7,2.1-23.7,6.2c-7,4.1-12.5,10-16.4,17.6c-3.9,7.6-5.9,16.5-5.9,26.8c0,10.8,2,20.1,6,27.8c4,7.7,9.6,13.6,16.9,17.7
			c7.3,4.1,15.7,6.1,25.3,6.1c11.7,0,21.8-3.6,30.2-10.9c8.4-7.3,13.5-17.2,15.2-29.9h-51.8v-16.8h71v21.8
			c-1.6,10.4-5.3,19.8-11.1,28.3c-5.8,8.5-13.5,15.2-23,20.3c-9.5,5.1-20.4,7.6-32.7,7.6c-13.7,0-25.9-3.1-36.4-9.2
			c-10.5-6.1-18.7-14.6-24.4-25.5c-5.7-10.9-8.6-23.3-8.6-37.3s2.9-26.4,8.6-37.3c5.7-10.9,13.8-19.3,24.3-25.4
			c10.5-6.1,22.6-9.1,36.3-9.1C210.4,55.6,224.4,59.7,235.6,68z M276.8,167.6v-19.2L347,55.6h24.4v92h19.8v20h-19.8V198h-23v-30.4
			H276.8z M350,82.8l-49.6,64.8H350V82.8z"/>
	</defs>
	<clipPath id="SVGID_2_">
		<use xlink:href="#SVGID_1_"  style="overflow:visible;"/>
	</clipPath>
	<linearGradient id="SVGID_3_" gradientUnits="userSpaceOnUse" x1="144" y1="16" x2="368" y2="240">
		<stop  offset="0" style="stop-color:#FF3663"/>
		<stop  offset="1" style="stop-color:#56CCFF"/>
	</linearGradient>
	<rect x="112" y="48" class="st0" width="288" height="160"/>
</g>
<g>
</g>
<g>
</g>
<g>
</g>
<g>
</g>
<g>
</g>
<g>
</g>
<g>
</g>
<g>
</g>
<g>
</g>
<g>
</g>
<g>
</g>
<g>
</g>
<g>
</g>
<g>
</g>
<g>
</g>
</svg>
