<?xml version="1.0" encoding="utf-8"?>
<!-- Generator: Adobe Illustrator 22.0.1, SVG Export Plug-In . SVG Version: 6.00 Build 0)  -->
<svg version="1.1" id="Layer_1" xmlns:serif="http://www.serif.com/"
	 xmlns="http://www.w3.org/2000/svg" xmlns:xlink="http://www.w3.org/1999/xlink" x="0px" y="0px" viewBox="0 0 128 128"
	 style="enable-background:new 0 0 128 128;" xml:space="preserve">
<path class="st0" style="fill:var(--svg-color-2);" d="M64,8c17.7,0,32,14.3,32,32S81.7,72,64,72S32,57.7,32,40S46.3,8,64,8z M69.7,57.8V23.8H56v7.7h5.1v26.3H69.7z"
	/>
<g transform="matrix(1,0,0,1,0,-8)">
	<path class="st1" style="fill:var(--svg-color-1);" d="M26.9,63C17.3,66.6,8.2,71.7,0,78.1V58.5c7.5-4.8,15.6-8.7,24.1-11.6L24,48C24,53.3,25,58.3,26.9,63z"/>
	<path class="st1" style="fill:var(--svg-color-1);" d="M128,59.3v19.2c-8.2-6.4-17.3-11.5-27-15.3c1.9-4.7,3-9.8,3-15.2l0-0.7C112.4,50.4,120.4,54.5,128,59.3z"/>
</g>
<g transform="matrix(1,0,0,0.75,0,20)">
	<path class="st0" style="fill:var(--svg-color-2);" d="M48,85.3c0-1.4-0.4-2.8-1.2-3.8c-0.8-1-1.8-1.6-2.8-1.6l0,0c-1.1,0-2.1,0.6-2.8,1.6c-0.8,1-1.2,2.4-1.2,3.8
		c0,5.9,0,15.4,0,21.3c0,1.4,0.4,2.8,1.2,3.8c0.8,1,1.8,1.6,2.8,1.6l0,0c1.1,0,2.1-0.6,2.8-1.6c0.8-1,1.2-2.4,1.2-3.8
		C48,100.7,48,91.3,48,85.3z"/>
</g>
<g transform="matrix(1,0,0,1,15.9904,8)">
	<path class="st0" style="fill:var(--svg-color-2);" d="M48,84c0-2.2-1.8-4-4-4l0,0c-2.2,0-4,1.8-4,4v24c0,2.2,1.8,4,4,4l0,0c2.2,0,4-1.8,4-4V84z"/>
</g>
<g transform="matrix(1,0,0,1.25,40,-28)">
	<path class="st0" style="fill:var(--svg-color-2);" d="M48,83.2c0-1.8-1.8-3.2-4-3.2l0,0c-2.2,0-4,1.4-4,3.2v25.6c0,1.8,1.8,3.2,4,3.2l0,0c2.2,0,4-1.4,4-3.2V83.2z"
		/>
</g>
</svg>
