<svg width="100%" height="100%" viewBox="0 0 128 128" version="1.1" xmlns="http://www.w3.org/2000/svg" xmlns:xlink="http://www.w3.org/1999/xlink" xml:space="preserve" xmlns:serif="http://www.serif.com/" style="fill-rule:evenodd;clip-rule:evenodd;stroke-linejoin:round;stroke-miterlimit:2;">
    <rect id="First-level-clear" serif:id="First level clear" x="0" y="0" width="128" height="128" style="fill:none;"/>
    <clipPath id="_clip1">
        <rect id="First-level-clear1" serif:id="First level clear" x="0" y="0" width="128" height="128"/>
    </clipPath>
    <g clip-path="url(#_clip1)">
        <path d="M64,8C81.661,8 96,22.339 96,40C96,57.661 81.661,72 64,72C46.339,72 32,57.661 32,40C32,22.339 46.339,8 64,8ZM69.702,57.76L69.702,23.824L55.974,23.824L55.974,31.504L61.062,31.504L61.062,57.76L69.702,57.76Z" style="fill:rgb(85,30,171);"/>
        <g transform="matrix(1,0,0,1,0,-8)">
            <path d="M24.055,46.902L24,48C24,53.287 25.028,58.337 26.926,62.965C14.38,67.737 2.749,74.906 -7.056,84.089C-22.874,98.902 -33.928,118.731 -38.076,139.998C-45.876,179.984 -28.031,224.064 7.182,247.1C40.529,268.916 86.589,269.346 120.556,247.271C145.331,231.17 162.739,204.206 166.944,174.868C169.973,153.738 166.359,131.683 156.62,112.679C145.039,90.082 124.656,72.397 100.998,63.172C102.94,58.493 104,53.369 104,48L103.965,47.306C142.404,61.508 173.918,95.232 181.921,137.67C189.233,176.447 176.09,218.569 147.297,246.35C114.006,278.472 61.47,288.939 17.978,270.843C-20.26,254.933 -49.139,218.374 -54.887,176.391C-60.945,132.143 -40.231,85.127 -2.181,59.908C5.977,54.501 14.82,50.135 24.055,46.902Z" style="fill:rgb(74,135,247);"/>
        </g>
        <g transform="matrix(1,0,0,0.75,0,20)">
            <path d="M48,85.333C48,83.919 47.579,82.562 46.828,81.562C46.078,80.562 45.061,80 44,80C44,80 44,80 44,80C42.939,80 41.922,80.562 41.172,81.562C40.421,82.562 40,83.919 40,85.333C40,91.252 40,100.748 40,106.667C40,108.081 40.421,109.438 41.172,110.438C41.922,111.438 42.939,112 44,112C44,112 44,112 44,112C45.061,112 46.078,111.438 46.828,110.438C47.579,109.438 48,108.081 48,106.667C48,100.748 48,91.252 48,85.333Z" style="fill:rgb(85,30,171);"/>
        </g>
        <g transform="matrix(1,0,0,1,15.9904,8)">
            <path d="M48,84C48,81.791 46.209,80 44,80L44,80C41.791,80 40,81.791 40,84L40,108C40,110.209 41.791,112 44,112L44,112C46.209,112 48,110.209 48,108L48,84Z" style="fill:rgb(85,30,171);"/>
        </g>
        <g transform="matrix(1,0,0,1.25,40,-28)">
            <path d="M48,83.2C48,81.433 46.209,80 44,80L44,80C41.791,80 40,81.433 40,83.2L40,108.8C40,110.567 41.791,112 44,112L44,112C46.209,112 48,110.567 48,108.8L48,83.2Z" style="fill:rgb(85,30,171);"/>
        </g>
    </g>
</svg>
