<svg width="100%" height="100%" viewBox="0 0 128 128" version="1.1" xmlns="http://www.w3.org/2000/svg" xmlns:xlink="http://www.w3.org/1999/xlink" xml:space="preserve" xmlns:serif="http://www.serif.com/" style="fill-rule:evenodd;clip-rule:evenodd;stroke-linecap:round;stroke-linejoin:round;stroke-miterlimit:1.5;">
    <g transform="matrix(1,0,0,1,-320,0)">
        <rect id="_-1-on-leaderboard" serif:id="#1 on leaderboard" x="320" y="0" width="128" height="128" style="fill:none;"/>
        <g id="_-1-on-leaderboard1" serif:id="#1 on leaderboard">
            <g transform="matrix(1,0,0,1,0,-8)">
                <g>
                    <path d="M352,24L336,48L432,48L416,24.001L352,24Z" style="fill:none;stroke:var(--svg-color-1);stroke-width:12px;"/>
                    <path d="M376,24.001L368,48" style="fill:none;stroke:var(--svg-color-1);stroke-width:12px;"/>
                    <path d="M392,24.001L400,48" style="fill:none;stroke:var(--svg-color-1);stroke-width:12px;"/>
                    <path d="M384,104L336,48L432,48L384,104Z" style="fill:none;stroke:var(--svg-color-1);stroke-width:12px;"/>
                </g>
                <path d="M368,48L384,96" style="fill:none;stroke:var(--svg-color-1);stroke-width:12px;"/>
                <path d="M400,48L384,96" style="fill:none;stroke:var(--svg-color-1);stroke-width:12px;"/>
            </g>
            <g transform="matrix(1,0,0,1,-24,8)">
                <g transform="matrix(96,0,0,96,351.024,111.52)">
                    <path d="M0.687,-0.439L0.634,-0.302L0.762,-0.302L0.74,-0.174L0.584,-0.174L0.516,0L0.385,0L0.453,-0.174L0.269,-0.174L0.201,0L0.07,0L0.138,-0.174L-0.013,-0.174L0.01,-0.302L0.188,-0.302L0.241,-0.439L0.095,-0.439L0.118,-0.567L0.291,-0.567L0.358,-0.74L0.489,-0.74L0.422,-0.567L0.606,-0.567L0.673,-0.74L0.804,-0.74L0.737,-0.567L0.87,-0.567L0.847,-0.439L0.687,-0.439ZM0.556,-0.439L0.372,-0.439L0.319,-0.302L0.503,-0.302L0.556,-0.439Z" style="fill:var(--svg-color-2);fill-rule:nonzero;"/>
                </g>
                <g transform="matrix(96,0,0,96,433.296,111.52)">
                    <path d="M0.051,-0.574L0.074,-0.706L0.328,-0.706L0.204,0L0.056,0L0.157,-0.574L0.051,-0.574Z" style="fill:var(--svg-color-2);fill-rule:nonzero;"/>
                </g>
            </g>
        </g>
    </g>
</svg>
