<svg width="100%" height="100%" viewBox="0 0 128 128" version="1.1" xmlns="http://www.w3.org/2000/svg" xmlns:xlink="http://www.w3.org/1999/xlink" xml:space="preserve" xmlns:serif="http://www.serif.com/" style="fill-rule:evenodd;clip-rule:evenodd;stroke-linejoin:round;stroke-miterlimit:2;">
    <g transform="matrix(1,0,0,1,-160,-160)">
        <g id="Reached-level-999-999" serif:id="Reached level 999,999" transform="matrix(1,0,0,1,0,-0.0154278)">
            <rect x="160" y="160.015" width="128" height="128" style="fill:none;"/>
            <g transform="matrix(1,0,0,1,-7.928,-3.96914)">
                <g transform="matrix(48,0,0,48,174.496,205.768)">
                    <path d="M0.236,-0.222C0.24,-0.198 0.248,-0.18 0.26,-0.168C0.271,-0.156 0.287,-0.15 0.308,-0.15C0.339,-0.15 0.361,-0.165 0.373,-0.196C0.385,-0.227 0.39,-0.274 0.389,-0.338C0.378,-0.315 0.359,-0.297 0.334,-0.284C0.309,-0.271 0.28,-0.264 0.247,-0.264C0.182,-0.264 0.13,-0.284 0.092,-0.324C0.053,-0.364 0.034,-0.421 0.034,-0.496C0.034,-0.545 0.044,-0.587 0.065,-0.624C0.085,-0.661 0.114,-0.689 0.152,-0.71C0.19,-0.73 0.235,-0.74 0.288,-0.74C0.36,-0.74 0.416,-0.725 0.457,-0.695C0.497,-0.665 0.525,-0.624 0.541,-0.573C0.556,-0.521 0.564,-0.458 0.564,-0.384C0.564,-0.255 0.545,-0.157 0.505,-0.092C0.467,-0.026 0.401,0.007 0.308,0.007C0.255,0.007 0.21,-0.004 0.172,-0.025C0.135,-0.046 0.106,-0.074 0.086,-0.109C0.066,-0.144 0.055,-0.181 0.052,-0.222L0.236,-0.222ZM0.375,-0.491C0.375,-0.516 0.368,-0.536 0.355,-0.55C0.341,-0.564 0.321,-0.571 0.295,-0.571C0.271,-0.571 0.252,-0.565 0.238,-0.552C0.224,-0.539 0.217,-0.519 0.217,-0.493C0.217,-0.468 0.224,-0.449 0.238,-0.436C0.253,-0.422 0.272,-0.415 0.296,-0.415C0.319,-0.415 0.338,-0.422 0.353,-0.435C0.368,-0.448 0.375,-0.467 0.375,-0.491Z" style="fill:var(--svg-color-1);fill-rule:nonzero;"/>
                </g>
                <g transform="matrix(48,0,0,48,203.248,205.768)">
                    <path d="M0.236,-0.222C0.24,-0.198 0.248,-0.18 0.26,-0.168C0.271,-0.156 0.287,-0.15 0.308,-0.15C0.339,-0.15 0.361,-0.165 0.373,-0.196C0.385,-0.227 0.39,-0.274 0.389,-0.338C0.378,-0.315 0.359,-0.297 0.334,-0.284C0.309,-0.271 0.28,-0.264 0.247,-0.264C0.182,-0.264 0.13,-0.284 0.092,-0.324C0.053,-0.364 0.034,-0.421 0.034,-0.496C0.034,-0.545 0.044,-0.587 0.065,-0.624C0.085,-0.661 0.114,-0.689 0.152,-0.71C0.19,-0.73 0.235,-0.74 0.288,-0.74C0.36,-0.74 0.416,-0.725 0.457,-0.695C0.497,-0.665 0.525,-0.624 0.541,-0.573C0.556,-0.521 0.564,-0.458 0.564,-0.384C0.564,-0.255 0.545,-0.157 0.505,-0.092C0.467,-0.026 0.401,0.007 0.308,0.007C0.255,0.007 0.21,-0.004 0.172,-0.025C0.135,-0.046 0.106,-0.074 0.086,-0.109C0.066,-0.144 0.055,-0.181 0.052,-0.222L0.236,-0.222ZM0.375,-0.491C0.375,-0.516 0.368,-0.536 0.355,-0.55C0.341,-0.564 0.321,-0.571 0.295,-0.571C0.271,-0.571 0.252,-0.565 0.238,-0.552C0.224,-0.539 0.217,-0.519 0.217,-0.493C0.217,-0.468 0.224,-0.449 0.238,-0.436C0.253,-0.422 0.272,-0.415 0.296,-0.415C0.319,-0.415 0.338,-0.422 0.353,-0.435C0.368,-0.448 0.375,-0.467 0.375,-0.491Z" style="fill:var(--svg-color-1);fill-rule:nonzero;"/>
                </g>
                <g transform="matrix(48,0,0,48,232,205.768)">
                    <path d="M0.236,-0.222C0.24,-0.198 0.248,-0.18 0.26,-0.168C0.271,-0.156 0.287,-0.15 0.308,-0.15C0.339,-0.15 0.361,-0.165 0.373,-0.196C0.385,-0.227 0.39,-0.274 0.389,-0.338C0.378,-0.315 0.359,-0.297 0.334,-0.284C0.309,-0.271 0.28,-0.264 0.247,-0.264C0.182,-0.264 0.13,-0.284 0.092,-0.324C0.053,-0.364 0.034,-0.421 0.034,-0.496C0.034,-0.545 0.044,-0.587 0.065,-0.624C0.085,-0.661 0.114,-0.689 0.152,-0.71C0.19,-0.73 0.235,-0.74 0.288,-0.74C0.36,-0.74 0.416,-0.725 0.457,-0.695C0.497,-0.665 0.525,-0.624 0.541,-0.573C0.556,-0.521 0.564,-0.458 0.564,-0.384C0.564,-0.255 0.545,-0.157 0.505,-0.092C0.467,-0.026 0.401,0.007 0.308,0.007C0.255,0.007 0.21,-0.004 0.172,-0.025C0.135,-0.046 0.106,-0.074 0.086,-0.109C0.066,-0.144 0.055,-0.181 0.052,-0.222L0.236,-0.222ZM0.375,-0.491C0.375,-0.516 0.368,-0.536 0.355,-0.55C0.341,-0.564 0.321,-0.571 0.295,-0.571C0.271,-0.571 0.252,-0.565 0.238,-0.552C0.224,-0.539 0.217,-0.519 0.217,-0.493C0.217,-0.468 0.224,-0.449 0.238,-0.436C0.253,-0.422 0.272,-0.415 0.296,-0.415C0.319,-0.415 0.338,-0.422 0.353,-0.435C0.368,-0.448 0.375,-0.467 0.375,-0.491Z" style="fill:var(--svg-color-1);fill-rule:nonzero;"/>
                </g>
                <g transform="matrix(48,0,0,48,260.752,205.768)">
                    <path d="M0.236,-0.222C0.24,-0.198 0.248,-0.18 0.26,-0.168C0.271,-0.156 0.287,-0.15 0.308,-0.15C0.339,-0.15 0.361,-0.165 0.373,-0.196C0.385,-0.227 0.39,-0.274 0.389,-0.338C0.378,-0.315 0.359,-0.297 0.334,-0.284C0.309,-0.271 0.28,-0.264 0.247,-0.264C0.182,-0.264 0.13,-0.284 0.092,-0.324C0.053,-0.364 0.034,-0.421 0.034,-0.496C0.034,-0.545 0.044,-0.587 0.065,-0.624C0.085,-0.661 0.114,-0.689 0.152,-0.71C0.19,-0.73 0.235,-0.74 0.288,-0.74C0.36,-0.74 0.416,-0.725 0.457,-0.695C0.497,-0.665 0.525,-0.624 0.541,-0.573C0.556,-0.521 0.564,-0.458 0.564,-0.384C0.564,-0.255 0.545,-0.157 0.505,-0.092C0.467,-0.026 0.401,0.007 0.308,0.007C0.255,0.007 0.21,-0.004 0.172,-0.025C0.135,-0.046 0.106,-0.074 0.086,-0.109C0.066,-0.144 0.055,-0.181 0.052,-0.222L0.236,-0.222ZM0.375,-0.491C0.375,-0.516 0.368,-0.536 0.355,-0.55C0.341,-0.564 0.321,-0.571 0.295,-0.571C0.271,-0.571 0.252,-0.565 0.238,-0.552C0.224,-0.539 0.217,-0.519 0.217,-0.493C0.217,-0.468 0.224,-0.449 0.238,-0.436C0.253,-0.422 0.272,-0.415 0.296,-0.415C0.319,-0.415 0.338,-0.422 0.353,-0.435C0.368,-0.448 0.375,-0.467 0.375,-0.491Z" style="fill:var(--svg-color-1);fill-rule:nonzero;"/>
                </g>
            </g>
            <g transform="matrix(1,0,0,1,-7.928,36.0463)">
                <g transform="matrix(48,0,0,48,174.496,205.768)">
                    <path d="M0.236,-0.222C0.24,-0.198 0.248,-0.18 0.26,-0.168C0.271,-0.156 0.287,-0.15 0.308,-0.15C0.339,-0.15 0.361,-0.165 0.373,-0.196C0.385,-0.227 0.39,-0.274 0.389,-0.338C0.378,-0.315 0.359,-0.297 0.334,-0.284C0.309,-0.271 0.28,-0.264 0.247,-0.264C0.182,-0.264 0.13,-0.284 0.092,-0.324C0.053,-0.364 0.034,-0.421 0.034,-0.496C0.034,-0.545 0.044,-0.587 0.065,-0.624C0.085,-0.661 0.114,-0.689 0.152,-0.71C0.19,-0.73 0.235,-0.74 0.288,-0.74C0.36,-0.74 0.416,-0.725 0.457,-0.695C0.497,-0.665 0.525,-0.624 0.541,-0.573C0.556,-0.521 0.564,-0.458 0.564,-0.384C0.564,-0.255 0.545,-0.157 0.505,-0.092C0.467,-0.026 0.401,0.007 0.308,0.007C0.255,0.007 0.21,-0.004 0.172,-0.025C0.135,-0.046 0.106,-0.074 0.086,-0.109C0.066,-0.144 0.055,-0.181 0.052,-0.222L0.236,-0.222ZM0.375,-0.491C0.375,-0.516 0.368,-0.536 0.355,-0.55C0.341,-0.564 0.321,-0.571 0.295,-0.571C0.271,-0.571 0.252,-0.565 0.238,-0.552C0.224,-0.539 0.217,-0.519 0.217,-0.493C0.217,-0.468 0.224,-0.449 0.238,-0.436C0.253,-0.422 0.272,-0.415 0.296,-0.415C0.319,-0.415 0.338,-0.422 0.353,-0.435C0.368,-0.448 0.375,-0.467 0.375,-0.491Z" style="fill:var(--svg-color-2);fill-rule:nonzero;"/>
                </g>
                <g transform="matrix(48,0,0,48,203.248,205.768)">
                    <path d="M0.236,-0.222C0.24,-0.198 0.248,-0.18 0.26,-0.168C0.271,-0.156 0.287,-0.15 0.308,-0.15C0.339,-0.15 0.361,-0.165 0.373,-0.196C0.385,-0.227 0.39,-0.274 0.389,-0.338C0.378,-0.315 0.359,-0.297 0.334,-0.284C0.309,-0.271 0.28,-0.264 0.247,-0.264C0.182,-0.264 0.13,-0.284 0.092,-0.324C0.053,-0.364 0.034,-0.421 0.034,-0.496C0.034,-0.545 0.044,-0.587 0.065,-0.624C0.085,-0.661 0.114,-0.689 0.152,-0.71C0.19,-0.73 0.235,-0.74 0.288,-0.74C0.36,-0.74 0.416,-0.725 0.457,-0.695C0.497,-0.665 0.525,-0.624 0.541,-0.573C0.556,-0.521 0.564,-0.458 0.564,-0.384C0.564,-0.255 0.545,-0.157 0.505,-0.092C0.467,-0.026 0.401,0.007 0.308,0.007C0.255,0.007 0.21,-0.004 0.172,-0.025C0.135,-0.046 0.106,-0.074 0.086,-0.109C0.066,-0.144 0.055,-0.181 0.052,-0.222L0.236,-0.222ZM0.375,-0.491C0.375,-0.516 0.368,-0.536 0.355,-0.55C0.341,-0.564 0.321,-0.571 0.295,-0.571C0.271,-0.571 0.252,-0.565 0.238,-0.552C0.224,-0.539 0.217,-0.519 0.217,-0.493C0.217,-0.468 0.224,-0.449 0.238,-0.436C0.253,-0.422 0.272,-0.415 0.296,-0.415C0.319,-0.415 0.338,-0.422 0.353,-0.435C0.368,-0.448 0.375,-0.467 0.375,-0.491Z" style="fill:var(--svg-color-2);fill-rule:nonzero;"/>
                </g>
                <g transform="matrix(48,0,0,48,232,205.768)">
                    <path d="M0.236,-0.222C0.24,-0.198 0.248,-0.18 0.26,-0.168C0.271,-0.156 0.287,-0.15 0.308,-0.15C0.339,-0.15 0.361,-0.165 0.373,-0.196C0.385,-0.227 0.39,-0.274 0.389,-0.338C0.378,-0.315 0.359,-0.297 0.334,-0.284C0.309,-0.271 0.28,-0.264 0.247,-0.264C0.182,-0.264 0.13,-0.284 0.092,-0.324C0.053,-0.364 0.034,-0.421 0.034,-0.496C0.034,-0.545 0.044,-0.587 0.065,-0.624C0.085,-0.661 0.114,-0.689 0.152,-0.71C0.19,-0.73 0.235,-0.74 0.288,-0.74C0.36,-0.74 0.416,-0.725 0.457,-0.695C0.497,-0.665 0.525,-0.624 0.541,-0.573C0.556,-0.521 0.564,-0.458 0.564,-0.384C0.564,-0.255 0.545,-0.157 0.505,-0.092C0.467,-0.026 0.401,0.007 0.308,0.007C0.255,0.007 0.21,-0.004 0.172,-0.025C0.135,-0.046 0.106,-0.074 0.086,-0.109C0.066,-0.144 0.055,-0.181 0.052,-0.222L0.236,-0.222ZM0.375,-0.491C0.375,-0.516 0.368,-0.536 0.355,-0.55C0.341,-0.564 0.321,-0.571 0.295,-0.571C0.271,-0.571 0.252,-0.565 0.238,-0.552C0.224,-0.539 0.217,-0.519 0.217,-0.493C0.217,-0.468 0.224,-0.449 0.238,-0.436C0.253,-0.422 0.272,-0.415 0.296,-0.415C0.319,-0.415 0.338,-0.422 0.353,-0.435C0.368,-0.448 0.375,-0.467 0.375,-0.491Z" style="fill:var(--svg-color-2);fill-rule:nonzero;"/>
                </g>
                <g transform="matrix(48,0,0,48,260.752,205.768)">
                    <path d="M0.236,-0.222C0.24,-0.198 0.248,-0.18 0.26,-0.168C0.271,-0.156 0.287,-0.15 0.308,-0.15C0.339,-0.15 0.361,-0.165 0.373,-0.196C0.385,-0.227 0.39,-0.274 0.389,-0.338C0.378,-0.315 0.359,-0.297 0.334,-0.284C0.309,-0.271 0.28,-0.264 0.247,-0.264C0.182,-0.264 0.13,-0.284 0.092,-0.324C0.053,-0.364 0.034,-0.421 0.034,-0.496C0.034,-0.545 0.044,-0.587 0.065,-0.624C0.085,-0.661 0.114,-0.689 0.152,-0.71C0.19,-0.73 0.235,-0.74 0.288,-0.74C0.36,-0.74 0.416,-0.725 0.457,-0.695C0.497,-0.665 0.525,-0.624 0.541,-0.573C0.556,-0.521 0.564,-0.458 0.564,-0.384C0.564,-0.255 0.545,-0.157 0.505,-0.092C0.467,-0.026 0.401,0.007 0.308,0.007C0.255,0.007 0.21,-0.004 0.172,-0.025C0.135,-0.046 0.106,-0.074 0.086,-0.109C0.066,-0.144 0.055,-0.181 0.052,-0.222L0.236,-0.222ZM0.375,-0.491C0.375,-0.516 0.368,-0.536 0.355,-0.55C0.341,-0.564 0.321,-0.571 0.295,-0.571C0.271,-0.571 0.252,-0.565 0.238,-0.552C0.224,-0.539 0.217,-0.519 0.217,-0.493C0.217,-0.468 0.224,-0.449 0.238,-0.436C0.253,-0.422 0.272,-0.415 0.296,-0.415C0.319,-0.415 0.338,-0.422 0.353,-0.435C0.368,-0.448 0.375,-0.467 0.375,-0.491Z" style="fill:var(--svg-color-2);fill-rule:nonzero;"/>
                </g>
            </g>
            <g transform="matrix(1,0,0,1,-7.928,76.0617)">
                <g transform="matrix(48,0,0,48,174.496,205.768)">
                    <path d="M0.236,-0.222C0.24,-0.198 0.248,-0.18 0.26,-0.168C0.271,-0.156 0.287,-0.15 0.308,-0.15C0.339,-0.15 0.361,-0.165 0.373,-0.196C0.385,-0.227 0.39,-0.274 0.389,-0.338C0.378,-0.315 0.359,-0.297 0.334,-0.284C0.309,-0.271 0.28,-0.264 0.247,-0.264C0.182,-0.264 0.13,-0.284 0.092,-0.324C0.053,-0.364 0.034,-0.421 0.034,-0.496C0.034,-0.545 0.044,-0.587 0.065,-0.624C0.085,-0.661 0.114,-0.689 0.152,-0.71C0.19,-0.73 0.235,-0.74 0.288,-0.74C0.36,-0.74 0.416,-0.725 0.457,-0.695C0.497,-0.665 0.525,-0.624 0.541,-0.573C0.556,-0.521 0.564,-0.458 0.564,-0.384C0.564,-0.255 0.545,-0.157 0.505,-0.092C0.467,-0.026 0.401,0.007 0.308,0.007C0.255,0.007 0.21,-0.004 0.172,-0.025C0.135,-0.046 0.106,-0.074 0.086,-0.109C0.066,-0.144 0.055,-0.181 0.052,-0.222L0.236,-0.222ZM0.375,-0.491C0.375,-0.516 0.368,-0.536 0.355,-0.55C0.341,-0.564 0.321,-0.571 0.295,-0.571C0.271,-0.571 0.252,-0.565 0.238,-0.552C0.224,-0.539 0.217,-0.519 0.217,-0.493C0.217,-0.468 0.224,-0.449 0.238,-0.436C0.253,-0.422 0.272,-0.415 0.296,-0.415C0.319,-0.415 0.338,-0.422 0.353,-0.435C0.368,-0.448 0.375,-0.467 0.375,-0.491Z" style="fill:var(--svg-color-1);fill-rule:nonzero;"/>
                </g>
                <g transform="matrix(48,0,0,48,203.248,205.768)">
                    <path d="M0.236,-0.222C0.24,-0.198 0.248,-0.18 0.26,-0.168C0.271,-0.156 0.287,-0.15 0.308,-0.15C0.339,-0.15 0.361,-0.165 0.373,-0.196C0.385,-0.227 0.39,-0.274 0.389,-0.338C0.378,-0.315 0.359,-0.297 0.334,-0.284C0.309,-0.271 0.28,-0.264 0.247,-0.264C0.182,-0.264 0.13,-0.284 0.092,-0.324C0.053,-0.364 0.034,-0.421 0.034,-0.496C0.034,-0.545 0.044,-0.587 0.065,-0.624C0.085,-0.661 0.114,-0.689 0.152,-0.71C0.19,-0.73 0.235,-0.74 0.288,-0.74C0.36,-0.74 0.416,-0.725 0.457,-0.695C0.497,-0.665 0.525,-0.624 0.541,-0.573C0.556,-0.521 0.564,-0.458 0.564,-0.384C0.564,-0.255 0.545,-0.157 0.505,-0.092C0.467,-0.026 0.401,0.007 0.308,0.007C0.255,0.007 0.21,-0.004 0.172,-0.025C0.135,-0.046 0.106,-0.074 0.086,-0.109C0.066,-0.144 0.055,-0.181 0.052,-0.222L0.236,-0.222ZM0.375,-0.491C0.375,-0.516 0.368,-0.536 0.355,-0.55C0.341,-0.564 0.321,-0.571 0.295,-0.571C0.271,-0.571 0.252,-0.565 0.238,-0.552C0.224,-0.539 0.217,-0.519 0.217,-0.493C0.217,-0.468 0.224,-0.449 0.238,-0.436C0.253,-0.422 0.272,-0.415 0.296,-0.415C0.319,-0.415 0.338,-0.422 0.353,-0.435C0.368,-0.448 0.375,-0.467 0.375,-0.491Z" style="fill:var(--svg-color-1);fill-rule:nonzero;"/>
                </g>
                <g transform="matrix(48,0,0,48,232,205.768)">
                    <path d="M0.236,-0.222C0.24,-0.198 0.248,-0.18 0.26,-0.168C0.271,-0.156 0.287,-0.15 0.308,-0.15C0.339,-0.15 0.361,-0.165 0.373,-0.196C0.385,-0.227 0.39,-0.274 0.389,-0.338C0.378,-0.315 0.359,-0.297 0.334,-0.284C0.309,-0.271 0.28,-0.264 0.247,-0.264C0.182,-0.264 0.13,-0.284 0.092,-0.324C0.053,-0.364 0.034,-0.421 0.034,-0.496C0.034,-0.545 0.044,-0.587 0.065,-0.624C0.085,-0.661 0.114,-0.689 0.152,-0.71C0.19,-0.73 0.235,-0.74 0.288,-0.74C0.36,-0.74 0.416,-0.725 0.457,-0.695C0.497,-0.665 0.525,-0.624 0.541,-0.573C0.556,-0.521 0.564,-0.458 0.564,-0.384C0.564,-0.255 0.545,-0.157 0.505,-0.092C0.467,-0.026 0.401,0.007 0.308,0.007C0.255,0.007 0.21,-0.004 0.172,-0.025C0.135,-0.046 0.106,-0.074 0.086,-0.109C0.066,-0.144 0.055,-0.181 0.052,-0.222L0.236,-0.222ZM0.375,-0.491C0.375,-0.516 0.368,-0.536 0.355,-0.55C0.341,-0.564 0.321,-0.571 0.295,-0.571C0.271,-0.571 0.252,-0.565 0.238,-0.552C0.224,-0.539 0.217,-0.519 0.217,-0.493C0.217,-0.468 0.224,-0.449 0.238,-0.436C0.253,-0.422 0.272,-0.415 0.296,-0.415C0.319,-0.415 0.338,-0.422 0.353,-0.435C0.368,-0.448 0.375,-0.467 0.375,-0.491Z" style="fill:var(--svg-color-1);fill-rule:nonzero;"/>
                </g>
                <g transform="matrix(48,0,0,48,260.752,205.768)">
                    <path d="M0.236,-0.222C0.24,-0.198 0.248,-0.18 0.26,-0.168C0.271,-0.156 0.287,-0.15 0.308,-0.15C0.339,-0.15 0.361,-0.165 0.373,-0.196C0.385,-0.227 0.39,-0.274 0.389,-0.338C0.378,-0.315 0.359,-0.297 0.334,-0.284C0.309,-0.271 0.28,-0.264 0.247,-0.264C0.182,-0.264 0.13,-0.284 0.092,-0.324C0.053,-0.364 0.034,-0.421 0.034,-0.496C0.034,-0.545 0.044,-0.587 0.065,-0.624C0.085,-0.661 0.114,-0.689 0.152,-0.71C0.19,-0.73 0.235,-0.74 0.288,-0.74C0.36,-0.74 0.416,-0.725 0.457,-0.695C0.497,-0.665 0.525,-0.624 0.541,-0.573C0.556,-0.521 0.564,-0.458 0.564,-0.384C0.564,-0.255 0.545,-0.157 0.505,-0.092C0.467,-0.026 0.401,0.007 0.308,0.007C0.255,0.007 0.21,-0.004 0.172,-0.025C0.135,-0.046 0.106,-0.074 0.086,-0.109C0.066,-0.144 0.055,-0.181 0.052,-0.222L0.236,-0.222ZM0.375,-0.491C0.375,-0.516 0.368,-0.536 0.355,-0.55C0.341,-0.564 0.321,-0.571 0.295,-0.571C0.271,-0.571 0.252,-0.565 0.238,-0.552C0.224,-0.539 0.217,-0.519 0.217,-0.493C0.217,-0.468 0.224,-0.449 0.238,-0.436C0.253,-0.422 0.272,-0.415 0.296,-0.415C0.319,-0.415 0.338,-0.422 0.353,-0.435C0.368,-0.448 0.375,-0.467 0.375,-0.491Z" style="fill:var(--svg-color-1);fill-rule:nonzero;"/>
                </g>
            </g>
        </g>
    </g>
</svg>
