<svg width="100%" height="100%" viewBox="0 0 128 128" version="1.1" xmlns="http://www.w3.org/2000/svg" xmlns:xlink="http://www.w3.org/1999/xlink" xml:space="preserve" xmlns:serif="http://www.serif.com/" style="fill-rule:evenodd;clip-rule:evenodd;stroke-linecap:round;stroke-linejoin:round;stroke-miterlimit:1.5;">
    <g transform="matrix(1,0,0,1,-160,0)">
        <rect id="Collision-on-zero" serif:id="Collision on zero" x="160" y="0" width="128" height="128" style="fill:none;"/>
        <clipPath id="_clip1">
            <rect id="Collision-on-zero1" serif:id="Collision on zero" x="160" y="0" width="128" height="128"/>
        </clipPath>
        <g clip-path="url(#_clip1)">
            <path d="M224,24C246.077,24 264,41.923 264,64C264,86.077 246.077,104 224,104C201.923,104 184,86.077 184,64C184,41.923 201.923,24 224,24ZM203.84,64.648C203.84,72.616 205.448,78.928 208.664,83.584C211.88,88.24 217.016,90.568 224.072,90.568C231.08,90.568 236.204,88.24 239.444,83.584C242.684,78.928 244.304,72.616 244.304,64.648C244.304,56.728 242.684,50.452 239.444,45.82C236.204,41.188 231.08,38.872 224.072,38.872C217.016,38.872 211.88,41.188 208.664,45.82C205.448,50.452 203.84,56.728 203.84,64.648ZM232.064,64.648C232.064,69.208 231.524,72.724 230.444,75.196C229.364,77.668 227.24,78.904 224.072,78.904C220.856,78.904 218.696,77.668 217.592,75.196C216.488,72.724 215.936,69.208 215.936,64.648C215.936,60.136 216.488,56.656 217.592,54.208C218.696,51.76 220.856,50.536 224.072,50.536C227.24,50.536 229.364,51.748 230.444,54.172C231.524,56.596 232.064,60.088 232.064,64.648Z" style="fill:var(--svg-color-2);"/>
            <path d="M224.226,24.001L224.465,24.001C283.612,24.282 340.776,63.818 360.424,121.833C375.003,164.879 367.792,214.97 340.652,252.406C314.068,289.074 269.66,312 224,312C170.173,312 117.678,279.461 94.029,230.028C71.545,183.029 76.955,124.196 108.631,81.852C135.254,46.262 178.405,24.216 223.535,24.001L223.774,24.001C201.91,24.122 184.177,41.822 184.001,63.672C159.053,73.411 137.422,91.902 124.719,116.143C105.691,152.452 108.615,199.42 133.059,233.351C157.782,267.669 202.928,286.104 245.203,277.994C290.025,269.396 327.932,231.331 334.812,184.368C338.179,161.385 334.233,137.349 323.594,116.745C311.105,92.558 289.326,73.646 263.999,63.71C263.843,41.842 246.102,24.122 224.226,24.001Z" style="fill:var(--svg-color-1);"/>
            <path d="M168,8L184,24" style="fill:none;stroke:var(--svg-color-2);stroke-width:12px;"/>
            <path d="M264,24L280,8" style="fill:none;stroke:var(--svg-color-2);stroke-width:12px;"/>
            <path d="M280,120L264,104" style="fill:none;stroke:var(--svg-color-2);stroke-width:12px;"/>
            <path d="M168,120L184,104" style="fill:none;stroke:var(--svg-color-2);stroke-width:12px;"/>
        </g>
    </g>
</svg>
