<?xml version="1.0" encoding="utf-8"?>
<!-- Generator: Adobe Illustrator 22.0.1, SVG Export Plug-In . SVG Version: 6.00 Build 0)  -->
<svg version="1.1" id="Layer_1" xmlns:serif="http://www.serif.com/"
	 xmlns="http://www.w3.org/2000/svg" xmlns:xlink="http://www.w3.org/1999/xlink" x="0px" y="0px" viewBox="0 0 512 512"
	 style="enable-background:new 0 0 512 512;" xml:space="preserve">
<style type="text/css">
	.st0{fill:var(--svg-color-2);}
	.st1{fill:var(--svg-color-1);}
</style>
<path class="st0" d="M162.8,122.8c156.9-92.3,319.5,71.2,225.5,228c-9.2,15.4-22.1,28.2-37.5,37.5c-156.8,94-320.3-68.6-228.1-225.5
	C132.5,146.3,146.3,132.5,162.8,122.8z M175.4,258.6c0,31.9,6.4,57.1,19.3,75.7s33.4,27.9,61.6,27.9c28,0,48.5-9.3,61.5-27.9
	s19.4-43.9,19.4-75.7c0-31.7-6.5-56.8-19.4-75.3s-33.5-27.8-61.5-27.8c-28.2,0-48.8,9.3-61.6,27.8S175.4,226.9,175.4,258.6z
	 M288.3,258.6c0,18.2-2.2,32.3-6.5,42.2s-12.8,14.8-25.5,14.8c-12.9,0-21.5-4.9-25.9-14.8s-6.6-24-6.6-42.2c0-18,2.2-32,6.6-41.8
	c4.4-9.8,13.1-14.7,25.9-14.7c12.7,0,21.2,4.8,25.5,14.5S288.3,240.4,288.3,258.6z"/>
<path class="st1" d="M254.1,96h1C167.6,96.5,96.7,167.3,96,254.7c-33.8,13.2-66.1,30.4-96,51.2v-149C78.2,118,165.2,96.4,254.1,96z"
	/>
<path class="st1" d="M512,158.5v147.7c-29.8-20.8-62.1-38.1-96-51.4C415.4,167.4,344.4,96.5,256.9,96h1
	C346.1,96.4,433.3,118.7,512,158.5z"/>
<path class="st0" d="M96,112c-4.1,0-8.2-1.6-11.3-4.7l-64-64c-6.2-6.2-6.2-16.4,0-22.6s16.4-6.2,22.6,0l64,64
	c6.2,6.2,6.2,16.4,0,22.6C104.2,110.4,100.1,112,96,112z"/>
<path class="st0" d="M416,112c-4.1,0-8.2-1.6-11.3-4.7c-6.2-6.2-6.2-16.4,0-22.6l64-64c6.2-6.2,16.4-6.2,22.6,0s6.2,16.4,0,22.6
	l-64,64C424.2,110.4,420.1,112,416,112z"/>
<path class="st0" d="M480,496c-4.1,0-8.2-1.6-11.3-4.7l-64-64c-6.2-6.2-6.2-16.4,0-22.6s16.4-6.2,22.6,0l64,64
	c6.2,6.2,6.2,16.4,0,22.6C488.2,494.4,484.1,496,480,496z"/>
<path class="st0" d="M32,496c-4.1,0-8.2-1.6-11.3-4.7c-6.2-6.2-6.2-16.4,0-22.6l64-64c6.2-6.2,16.4-6.2,22.6,0s6.2,16.4,0,22.6
	l-64,64C40.2,494.4,36.1,496,32,496z"/>
</svg>
